<svg xmlns="http://www.w3.org/2000/svg" xmlns:xlink="http://www.w3.org/1999/xlink" width="200" zoomAndPan="magnify" viewBox="0 0 150 74.999997" height="100" preserveAspectRatio="xMidYMid meet" version="1.0"><defs><g/></defs><g fill="#ffffff" fill-opacity="1"><g transform="translate(10.934472, 46.636929)"><g><path d="M 9.699219 -3.34375 L 0 -3.34375 L 0 -0.203125 C 0 -0.113281 0.113281 0 0.246094 0 L 9.699219 0 C 9.855469 0 9.945312 -0.113281 9.945312 -0.203125 L 9.945312 -3.121094 C 9.945312 -3.234375 9.855469 -3.34375 9.699219 -3.34375 Z M 3.433594 -6.777344 L 3.433594 -17.757812 C 3.433594 -17.84375 3.34375 -17.957031 3.210938 -17.957031 L 0.246094 -17.957031 C 0.113281 -17.957031 0 -17.84375 0 -17.757812 L 0 -6.777344 Z M 3.433594 -6.777344 "/></g></g></g><g fill="#ffffff" fill-opacity="1"><g transform="translate(23.862335, 46.636929)"><g><path d="M 14.097656 -0.269531 L 7.273438 -17.824219 C 7.207031 -18.003906 6.890625 -18.003906 6.824219 -17.824219 L 0.0234375 -0.269531 C -0.0429688 -0.132812 0.0429688 0 0.246094 0 L 3.320312 0 C 3.410156 0 3.523438 -0.0429688 3.546875 -0.132812 L 7.046875 -10.144531 L 10.59375 -0.132812 C 10.617188 -0.0429688 10.730469 0 10.796875 0 L 13.894531 0 C 14.050781 0 14.164062 -0.132812 14.097656 -0.269531 Z M 14.097656 -0.269531 "/></g></g></g><g fill="#ffffff" fill-opacity="1"><g transform="translate(41.14418, 46.636929)"><g><path d="M 14.859375 -17.957031 L 11.964844 -17.957031 C 11.808594 -17.957031 11.695312 -17.84375 11.695312 -17.757812 L 11.695312 -6.0625 L 3.410156 -17.890625 C 3.390625 -17.933594 3.253906 -17.957031 3.210938 -17.957031 L 0.222656 -17.957031 C 0.113281 -17.957031 0 -17.84375 0 -17.757812 L 0 -4.308594 L 3.433594 -4.308594 L 3.433594 -11.898438 L 11.695312 -0.0664062 C 11.71875 -0.0234375 11.851562 0 11.898438 0 L 14.859375 0 C 15.015625 0 15.105469 -0.113281 15.105469 -0.203125 L 15.105469 -17.757812 C 15.105469 -17.84375 15.015625 -17.957031 14.859375 -17.957031 Z M 14.859375 -17.957031 "/></g></g></g><g fill="#ffffff" fill-opacity="1"><g transform="translate(59.480856, 46.636929)"><g><path d="M 8.238281 -9.964844 C 6.957031 -10.574219 5.703125 -10.574219 5.589844 -10.574219 C 4.445312 -10.574219 3.34375 -11.246094 3.34375 -12.546875 C 3.34375 -13.984375 4.355469 -14.726562 5.589844 -14.726562 C 6.757812 -14.726562 7.746094 -14.121094 7.789062 -12.839844 C 7.789062 -12.773438 7.902344 -12.660156 8.035156 -12.660156 L 10.84375 -12.660156 C 11 -12.660156 11.113281 -12.773438 11.089844 -12.839844 C 11.042969 -15.894531 8.664062 -17.957031 5.589844 -17.957031 C 2.714844 -17.957031 0 -15.914062 0 -12.546875 C 0 -10.460938 1.054688 -8.867188 2.917969 -8.015625 C 4.21875 -7.40625 5.433594 -7.40625 5.589844 -7.40625 C 6.597656 -7.363281 7.835938 -6.554688 7.835938 -5.230469 C 7.835938 -4.039062 6.777344 -3.234375 5.589844 -3.234375 C 5.589844 -3.234375 5.589844 -3.234375 5.566406 -3.234375 L 5.566406 0 C 5.589844 0 5.589844 0 5.589844 0 C 8.460938 0 11.15625 -1.863281 11.15625 -5.230469 C 11.15625 -7.339844 10.125 -9.089844 8.238281 -9.964844 Z M 8.238281 -9.964844 "/></g></g></g><g fill="#ffffff" fill-opacity="1"><g transform="translate(73.665536, 46.636929)"><g><path d="M 18.652344 -14.65625 L 16.363281 -8.484375 L 12.816406 -17.824219 C 12.773438 -17.914062 12.683594 -17.957031 12.59375 -17.957031 L 9.539062 -17.957031 C 9.449219 -17.957031 9.359375 -17.914062 9.339844 -17.824219 L 5.769531 -8.484375 L 3.5 -14.65625 L 0 -14.65625 L 5.566406 -0.132812 C 5.632812 0.0429688 5.925781 0.0429688 5.992188 -0.132812 L 11.066406 -13.445312 L 16.140625 -0.132812 C 16.207031 0.0429688 16.5 0.0429688 16.566406 -0.132812 L 22.15625 -14.65625 Z M 18.652344 -14.65625 "/></g></g></g><g fill="#ffffff" fill-opacity="1"><g transform="translate(99.386023, 46.636929)"><g><path d="M 8.53125 -3.34375 L 3.433594 -3.34375 L 3.433594 -7.386719 L 10.484375 -7.386719 C 10.617188 -7.386719 10.730469 -7.496094 10.730469 -7.585938 L 10.730469 -10.4375 C 10.730469 -10.550781 10.617188 -10.640625 10.484375 -10.640625 L 3.433594 -10.640625 L 3.433594 -14.703125 L 8.53125 -14.703125 L 8.53125 -17.957031 L 0.246094 -17.957031 C 0.113281 -17.957031 0 -17.84375 0 -17.757812 L 0 -0.203125 C 0 -0.113281 0.113281 0 0.246094 0 L 8.53125 0 Z M 8.53125 -3.34375 "/></g></g></g><g fill="#ffffff" fill-opacity="1"><g transform="translate(113.121843, 46.636929)"><g><path d="M 13.691406 -14.65625 L 13.691406 -17.757812 C 13.691406 -17.84375 13.601562 -17.957031 13.445312 -17.957031 L 10.527344 -17.957031 C 6.0625 -17.957031 0 -16.65625 0 -8.980469 C 0 -1.011719 6.128906 0 10.527344 0 L 13.445312 0 C 13.601562 0 13.691406 -0.113281 13.691406 -0.203125 L 13.691406 -11.203125 L 6.800781 -11.203125 L 6.800781 -7.765625 L 10.257812 -7.765625 L 10.257812 -3.277344 C 6.351562 -3.074219 3.457031 -4.714844 3.457031 -8.980469 C 3.457031 -14.523438 8.082031 -14.746094 10.257812 -14.65625 Z M 13.691406 -14.65625 "/></g></g></g><g fill="#562a8f" fill-opacity="1"><g transform="translate(129.982387, 46.636929)"><g><path d="M 10.015625 3.453125 L -0.046875 3.453125 L -0.046875 2.015625 L 10.015625 2.015625 Z M 10.015625 3.453125 "/></g></g></g><path stroke-linecap="butt" transform="matrix(-0.415616, 0, 0, -0.415616, 149.983848, 22.226727)" fill="none" stroke-linejoin="miter" d="M -0.00126715 5.000508 L 84.107764 5.000508 " stroke="#ffffff" stroke-width="10" stroke-opacity="1" stroke-miterlimit="4"/><path stroke-linecap="butt" transform="matrix(0, -0.415616, 0.415616, 0, 145.837798, 53.588356)" fill="none" stroke-linejoin="miter" d="M -0.00357909 4.995635 L 82.460678 4.995635 " stroke="#ffffff" stroke-width="10" stroke-opacity="1" stroke-miterlimit="4"/><path stroke-linecap="butt" transform="matrix(0.415616, 0, 0, 0.415616, 0.0158712, 52.772872)" fill="none" stroke-linejoin="miter" d="M -0.000592291 5.001472 L 83.788883 5.001472 " stroke="#ffffff" stroke-width="10" stroke-opacity="1" stroke-miterlimit="4"/><path stroke-linecap="butt" transform="matrix(0, 0.415616, -0.415616, 0, 4.154029, 21.411243)" fill="none" stroke-linejoin="miter" d="M -0.00261482 5.004167 L 82.461642 5.004167 " stroke="#ffffff" stroke-width="10" stroke-opacity="1" stroke-miterlimit="4"/></svg>